<svg width="900" height="260" viewBox="0 0 900 260" xmlns="http://www.w3.org/2000/svg">
<defs>
<style>
.tw{animation:tw 3s infinite ease-in-out}
.tw2{animation:tw 4.5s 1.2s infinite ease-in-out}
.tw3{animation:tw 5.5s 2.5s infinite ease-in-out}
.orb{animation:fl 9s infinite ease-in-out}
.orb2{animation:fl 11s 2s infinite ease-in-out}
.orb3{animation:fl 7s 3.5s infinite ease-in-out}
.t1{animation:up 1.3s 0.2s both}
.t2{animation:up 1.3s 0.6s both}
.t3{animation:up 1.3s 1.0s both}
.t4{animation:up 1.3s 1.3s both}
@keyframes tw{0%,100%{opacity:.08}50%{opacity:.85}}
@keyframes fl{0%,100%{transform:translateY(0)}50%{transform:translateY(-14px)}}
@keyframes up{from{opacity:0;transform:translateY(18px)}to{opacity:1;transform:translateY(0)}}
</style>
<radialGradient id="bg" cx="50%" cy="45%" r="55%">
<stop offset="0%" stop-color="#1a002e"/>
<stop offset="100%" stop-color="#04000a"/>
</radialGradient>
</defs>
<rect width="900" height="260" fill="#04000a"/>
<rect width="900" height="260" fill="url(#bg)"/>
<circle cx="469.6" cy="206.7" r="1.7" fill="#fff" opacity="0.37" class="tw"/>
<circle cx="686.8" cy="181.1" r="1.3" fill="#fff" opacity="0.27" class="tw2"/>
<circle cx="29.0" cy="101.0" r="1.4" fill="#fff" opacity="0.35" class="tw3"/>
<circle cx="451.4" cy="84.4" r="1.6" fill="#fff" opacity="0.77" class="tw"/>
<circle cx="362.4" cy="254.6" r="0.5" fill="#fff" opacity="0.69" class="tw2"/>
<circle cx="784.0" cy="42.7" r="1.4" fill="#fff" opacity="0.54" class="tw3"/>
<circle cx="855.1" cy="57.5" r="1.2" fill="#fff" opacity="0.73" class="tw"/>
<circle cx="573.5" cy="82.3" r="0.5" fill="#fff" opacity="0.76" class="tw2"/>
<circle cx="426.9" cy="254.1" r="0.6" fill="#fff" opacity="0.69" class="tw3"/>
<circle cx="728.9" cy="235.0" r="0.4" fill="#fff" opacity="0.42" class="tw"/>
<circle cx="51.0" cy="193.0" r="0.9" fill="#fff" opacity="0.78" class="tw2"/>
<circle cx="338.6" cy="198.6" r="1.6" fill="#fff" opacity="0.34" class="tw3"/>
<circle cx="500.6" cy="244.3" r="1.1" fill="#fff" opacity="0.42" class="tw"/>
<circle cx="242.8" cy="201.6" r="0.7" fill="#fff" opacity="0.56" class="tw2"/>
<circle cx="499.4" cy="143.4" r="0.6" fill="#fff" opacity="0.60" class="tw3"/>
<circle cx="820.7" cy="84.7" r="0.9" fill="#fff" opacity="0.75" class="tw"/>
<circle cx="519.7" cy="73.1" r="0.4" fill="#fff" opacity="0.65" class="tw2"/>
<circle cx="314.7" cy="121.8" r="0.8" fill="#fff" opacity="0.58" class="tw3"/>
<circle cx="653.8" cy="82.4" r="0.5" fill="#fff" opacity="0.79" class="tw"/>
<circle cx="814.9" cy="10.2" r="1.2" fill="#fff" opacity="0.61" class="tw2"/>
<circle cx="363.7" cy="187.9" r="1.7" fill="#fff" opacity="0.55" class="tw3"/>
<circle cx="353.5" cy="53.9" r="0.8" fill="#fff" opacity="0.29" class="tw"/>
<circle cx="103.3" cy="58.1" r="1.6" fill="#fff" opacity="0.52" class="tw2"/>
<circle cx="721.4" cy="235.0" r="1.5" fill="#fff" opacity="0.23" class="tw3"/>
<circle cx="829.1" cy="28.2" r="1.5" fill="#fff" opacity="0.70" class="tw"/>
<circle cx="590.1" cy="105.9" r="0.5" fill="#fff" opacity="0.25" class="tw2"/>
<circle cx="571.5" cy="65.4" r="1.1" fill="#fff" opacity="0.36" class="tw3"/>
<circle cx="150.4" cy="78.8" r="1.4" fill="#fff" opacity="0.49" class="tw"/>
<circle cx="354.6" cy="126.6" r="1.2" fill="#fff" opacity="0.51" class="tw2"/>
<circle cx="401.1" cy="246.8" r="1.5" fill="#fff" opacity="0.34" class="tw3"/>
<circle cx="288.2" cy="52.2" r="0.9" fill="#fff" opacity="0.22" class="tw"/>
<circle cx="667.6" cy="147.0" r="1.0" fill="#fff" opacity="0.74" class="tw2"/>
<circle cx="297.6" cy="149.6" r="1.7" fill="#fff" opacity="0.53" class="tw3"/>
<circle cx="550.5" cy="97.0" r="1.8" fill="#fff" opacity="0.65" class="tw"/>
<circle cx="275.0" cy="93.9" r="1.2" fill="#fff" opacity="0.51" class="tw2"/>
<circle cx="470.7" cy="53.0" r="1.2" fill="#fff" opacity="0.62" class="tw3"/>
<circle cx="685.8" cy="117.3" r="1.0" fill="#fff" opacity="0.50" class="tw"/>
<circle cx="482.3" cy="123.7" r="0.4" fill="#fff" opacity="0.36" class="tw2"/>
<circle cx="884.1" cy="211.6" r="1.1" fill="#fff" opacity="0.65" class="tw3"/>
<circle cx="193.0" cy="71.8" r="1.1" fill="#fff" opacity="0.62" class="tw"/>
<circle cx="29.5" cy="122.9" r="1.2" fill="#f4a7c3" opacity="0.34" class="tw"/>
<circle cx="888.9" cy="29.7" r="1.2" fill="#f4a7c3" opacity="0.43" class="tw2"/>
<circle cx="28.3" cy="139.1" r="1.1" fill="#f4a7c3" opacity="0.19" class="tw3"/>
<circle cx="582.9" cy="217.6" r="1.1" fill="#f4a7c3" opacity="0.27" class="tw"/>
<circle cx="56.9" cy="139.8" r="0.5" fill="#f4a7c3" opacity="0.32" class="tw2"/>
<circle cx="244.8" cy="91.8" r="0.8" fill="#f4a7c3" opacity="0.43" class="tw3"/>
<circle cx="873.0" cy="106.4" r="0.3" fill="#f4a7c3" opacity="0.40" class="tw"/>
<circle cx="306.9" cy="194.4" r="1.1" fill="#f4a7c3" opacity="0.11" class="tw2"/>
<circle cx="655.4" cy="76.2" r="0.6" fill="#f4a7c3" opacity="0.23" class="tw3"/>
<circle cx="484.2" cy="65.8" r="0.8" fill="#f4a7c3" opacity="0.21" class="tw"/>
<circle cx="115.9" cy="67.5" r="1.0" fill="#f4a7c3" opacity="0.22" class="tw2"/>
<circle cx="183.3" cy="96.4" r="0.5" fill="#f4a7c3" opacity="0.49" class="tw3"/>
<circle cx="705.6" cy="42.9" r="0.6" fill="#f4a7c3" opacity="0.27" class="tw"/>
<circle cx="475.0" cy="102.1" r="0.8" fill="#f4a7c3" opacity="0.40" class="tw2"/>
<circle cx="142.2" cy="144.8" r="0.5" fill="#f4a7c3" opacity="0.31" class="tw3"/>
<circle cx="287.2" cy="205.8" r="1.2" fill="#f4a7c3" opacity="0.48" class="tw"/>
<circle cx="367.4" cy="159.2" r="0.5" fill="#f4a7c3" opacity="0.38" class="tw2"/>
<circle cx="697.4" cy="111.8" r="0.6" fill="#f4a7c3" opacity="0.40" class="tw3"/>
<circle cx="672.8" cy="204.8" r="0.6" fill="#f4a7c3" opacity="0.20" class="tw"/>
<circle cx="228.1" cy="52.8" r="0.3" fill="#f4a7c3" opacity="0.15" class="tw2"/>
<circle cx="443.5" cy="112.6" r="1.2" fill="#f4a7c3" opacity="0.25" class="tw3"/>
<circle cx="156.6" cy="237.7" r="0.4" fill="#f4a7c3" opacity="0.24" class="tw"/>
<circle cx="684.6" cy="85.3" r="1.3" fill="#f4a7c3" opacity="0.40" class="tw2"/>
<circle cx="279.4" cy="220.9" r="1.2" fill="#f4a7c3" opacity="0.31" class="tw3"/>
<circle cx="132.8" cy="31.0" r="1.1" fill="#f4a7c3" opacity="0.46" class="tw"/>
<circle cx="586.9" cy="198.5" r="1.1" fill="#f4a7c3" opacity="0.19" class="tw2"/>
<circle cx="194.8" cy="221.9" r="1.1" fill="#f4a7c3" opacity="0.27" class="tw3"/>
<circle cx="245.5" cy="24.7" r="0.7" fill="#f4a7c3" opacity="0.46" class="tw"/>
<circle cx="70" cy="50" r="16" fill="#b05070" opacity="0.18" class="orb"/>
<circle cx="840" cy="65" r="10" fill="#e891aa" opacity="0.2" class="orb2"/>
<circle cx="130" cy="210" r="8" fill="#f4a7c3" opacity="0.15" class="orb3"/>
<circle cx="790" cy="185" r="20" fill="#8a2248" opacity="0.17" class="orb"/>
<circle cx="430" cy="18" r="5" fill="#f4a7c3" opacity="0.12" class="orb2"/>
<circle cx="640" cy="248" r="9" fill="#c9607a" opacity="0.16" class="orb3"/>
<circle cx="40" cy="155" r="12" fill="#9a3858" opacity="0.13" class="orb2"/>
<circle cx="875" cy="230" r="6" fill="#f4a7c3" opacity="0.11" class="orb3"/>
<circle cx="270" cy="235" r="4" fill="#e891aa" opacity="0.1" class="orb"/>
<circle cx="200" cy="80" r="2.4" fill="#5a1a3a" opacity="0.4" class="tw2"/>
<circle cx="350" cy="55" r="2.6" fill="#5a1a3a" opacity="0.4" class="tw2"/>
<circle cx="500" cy="90" r="2.1" fill="#5a1a3a" opacity="0.4" class="tw2"/>
<circle cx="650" cy="65" r="3.1" fill="#5a1a3a" opacity="0.4" class="tw2"/>
<circle cx="750" cy="95" r="2.1" fill="#5a1a3a" opacity="0.4" class="tw2"/>
<circle cx="280" cy="160" r="3.3" fill="#5a1a3a" opacity="0.4" class="tw2"/>
<circle cx="480" cy="140" r="3.0" fill="#5a1a3a" opacity="0.4" class="tw2"/>
<circle cx="620" cy="170" r="2.8" fill="#5a1a3a" opacity="0.4" class="tw2"/>
<line x1="200" y1="80" x2="350" y2="55" stroke="#3a0a28" stroke-width="0.4" opacity="0.3"/>
<line x1="350" y1="55" x2="500" y2="90" stroke="#3a0a28" stroke-width="0.4" opacity="0.3"/>
<line x1="500" y1="90" x2="650" y2="65" stroke="#3a0a28" stroke-width="0.4" opacity="0.3"/>
<line x1="650" y1="65" x2="750" y2="95" stroke="#3a0a28" stroke-width="0.4" opacity="0.3"/>
<line x1="280" y1="160" x2="480" y2="140" stroke="#3a0a28" stroke-width="0.4" opacity="0.3"/>
<line x1="480" y1="140" x2="620" y2="170" stroke="#3a0a28" stroke-width="0.4" opacity="0.3"/>
<line x1="350" y1="55" x2="280" y2="160" stroke="#3a0a28" stroke-width="0.4" opacity="0.3"/>
<line x1="500" y1="90" x2="480" y2="140" stroke="#3a0a28" stroke-width="0.4" opacity="0.3"/>
<line x1="650" y1="65" x2="620" y2="170" stroke="#3a0a28" stroke-width="0.4" opacity="0.3"/>
<text x="450" y="118" font-family="Georgia,'Times New Roman',serif" font-size="46" font-style="italic" font-weight="400" fill="#f4a7c3" text-anchor="middle" letter-spacing="2" class="t1">Mentor–Mentee System</text>
<text x="450" y="153" font-family="Georgia,'Times New Roman',serif" font-size="12" font-style="italic" fill="#6a3a52" text-anchor="middle" letter-spacing="9" class="t2">MATCHING  ·  BOOKING  ·  FEEDBACK  ·  ANALYTICS</text>
<line x1="290" y1="170" x2="610" y2="170" stroke="#2e0820" stroke-width="0.5" class="t3"/>
<text x="450" y="190" font-family="Georgia,'Times New Roman',serif" font-size="11" font-style="italic" fill="#4a1a32" text-anchor="middle" letter-spacing="4" class="t4">mentor-mentee-system.vercel.app</text>
</svg>
